0
SECTION
2
HEADER
9
$INSUNITS
70
4
9
$ACADVER
1
AC1014
9
$HANDSEED
5
FFFF
0
ENDSEC
0
SECTION
2
TABLES
0
TABLE
2
VPORT
5
8
100
AcDbSymbolTable
0
ENDTAB
0
TABLE
2
LTYPE
5
5
100
AcDbSymbolTable
0
LTYPE
5
14
100
AcDbSymbolTableRecord
100
AcDbLinetypeTableRecord
2
BYBLOCK
70
0
0
LTYPE
5
15
100
AcDbSymbolTableRecord
100
AcDbLinetypeTableRecord
2
BYLAYER
70
0
0
ENDTAB
0
TABLE
2
LAYER
5
2
100
AcDbSymbolTable
70
2
0
LAYER
5
50
100
AcDbSymbolTableRecord
100
AcDbLayerTableRecord
2
0
70
0
6
CONTINUOUS
0
ENDTAB
0
TABLE
2
STYLE
5
3
100
AcDbSymbolTable
70
1
0
STYLE
5
11
100
AcDbSymbolTableRecord
100
AcDbTextStyleTableRecord
2
STANDARD
70
0
0
ENDTAB
0
TABLE
2
VIEW
5
6
100
AcDbSymbolTable
70
0
0
ENDTAB
0
TABLE
2
UCS
5
7
100
AcDbSymbolTable
70
0
0
ENDTAB
0
TABLE
2
APPID
5
9
100
AcDbSymbolTable
70
2
0
APPID
5
12
100
AcDbSymbolTableRecord
100
AcDbRegAppTableRecord
2
ACAD
70
0
0
ENDTAB
0
TABLE
2
DIMSTYLE
5
A
100
AcDbSymbolTable
70
1
0
ENDTAB
0
TABLE
2
BLOCK_RECORD
5
1
100
AcDbSymbolTable
70
1
0
BLOCK_RECORD
5
1F
100
AcDbSymbolTableRecord
100
AcDbBlockTableRecord
2
*MODEL_SPACE
0
BLOCK_RECORD
5
1B
100
AcDbSymbolTableRecord
100
AcDbBlockTableRecord
2
*PAPER_SPACE
0
ENDTAB
0
ENDSEC
0
SECTION
2
BLOCKS
0
BLOCK
5
20
100
AcDbEntity
100
AcDbBlockBegin
2
*MODEL_SPACE
0
ENDBLK
5
21
100
AcDbEntity
100
AcDbBlockEnd
0
BLOCK
5
1C
100
AcDbEntity
100
AcDbBlockBegin
2
*PAPER_SPACE
0
ENDBLK
5
1D
100
AcDbEntity
100
AcDbBlockEnd
0
ENDSEC
0
SECTION
2
ENTITIES
0
SPLINE
5
100
100
AcDbEntity
8
0
100
AcDbSpline
70
2
71
3
72
95
73
91
74
0
42
0.000000001
43
0.0000000001
44
0.0000000001
40
-3.1415926535897931
40
-3.1415926535897931
40
-3.1415926535897931
40
-3.1415926535897931
40
-3.0372738926827187
40
-3.0372738926827187
40
-3.0372738926827187
40
-2.9334340857745937
40
-2.9334340857745937
40
-2.9334340857745937
40
-2.7317086134401443
40
-2.7317086134401443
40
-2.7317086134401443
40
-2.5366815751923921
40
-2.5366815751923921
40
-2.5366815751923921
40
-2.164130003041993
40
-2.164130003041993
40
-2.164130003041993
40
-1.8160215395403814
40
-1.8160215395403814
40
-1.8160215395403814
40
-1.4907524723291106
40
-1.4907524723291106
40
-1.4907524723291106
40
-1.1868243086175712
40
-1.1868243086175712
40
-1.1868243086175712
40
-0.902836871727146
40
-0.902836871727146
40
-0.902836871727146
40
-0.63748185057110152
40
-0.63748185057110152
40
-0.63748185057110152
40
-0.38953677235310513
40
-0.38953677235310513
40
-0.38953677235310513
40
-0.27228317300566712
40
-0.27228317300566712
40
-0.27228317300566712
40
-0.15892306067088893
40
-0.15892306067088893
40
-0.15892306067088893
40
-0.049327149414674518
40
-0.049327149414674518
40
-0.049327149414674518
40
0.056629553668046742
40
0.056629553668046742
40
0.056629553668046742
40
0.15906789100632368
40
0.15906789100632368
40
0.15906789100632368
40
0.25810469237261546
40
0.25810469237261546
40
0.25810469237261546
40
0.44729033750807451
40
0.44729033750807451
40
0.44729033750807451
40
0.62406351246619618
40
0.62406351246619618
40
0.62406351246619618
40
0.95042735265842682
40
0.95042735265842682
40
0.95042735265842682
40
1.2344825043651362
40
1.2344825043651362
40
1.2344825043651362
40
1.722978261815391
40
1.722978261815391
40
1.722978261815391
40
2.0863485223750162
40
2.0863485223750162
40
2.0863485223750162
40
2.3566434926903228
40
2.3566434926903228
40
2.3566434926903228
40
2.557703895556628
40
2.557703895556628
40
2.557703895556628
40
2.7072637839763187
40
2.7072637839763187
40
2.7072637839763187
40
2.8185147309814536
40
2.8185147309814536
40
2.8185147309814536
40
2.9820267914068403
40
2.9820267914068403
40
2.9820267914068403
40
3.0627842219624326
40
3.0627842219624326
40
3.0627842219624326
40
3.1415926535897931
40
3.1415926535897931
40
3.1415926535897931
40
3.1415926535897931
10
-85
20
-6.6363255533691093e-15
30
0
10
-85
20
0.86932300755895253
30
0
10
-84.845692954521411
20
1.7386443001557534
30
0
10
-84.537917111048898
20
2.6032414337527712
30
0
10
-84.231554344857287
20
3.4638689817161428
30
0
10
-83.773131228730037
20
4.319812332651888
30
0
10
-83.165115292431736
20
5.1664642457360124
30
0
10
-81.98394686012557
20
6.8112213206492207
30
0
10
-80.236864040258638
20
8.4207747842983931
30
0
10
-77.959198342914405
20
9.9625744027826517
30
0
10
-75.757164113270491
20
11.453177496604972
30
0
10
-73.059418950990036
20
12.880389970493288
30
0
10
-69.916976917347128
20
14.217223395142963
30
0
10
-63.914108132876663
20
16.770917480492066
30
0
10
-56.277355225301491
20
18.991166606087234
30
0
10
-47.525881144007762
20
20.727033443149306
30
0
10
-39.348591277187708
20
22.349010057031734
30
0
10
-30.203854857972765
20
23.547800467623624
30
0
10
-20.63585850369779
20
24.252066839854891
30
0
10
-11.695618390226796
20
24.910126295404062
30
0
10
-2.3899845718270507
20
25.136688325013093
30
0
10
6.7964646883841162
20
24.919955018196912
30
0
10
15.380191012632832
20
24.717441583640944
30
0
10
23.857269763351468
20
24.128378409122927
30
0
10
31.841527555714801
20
23.179600271889711
30
0
10
39.301938194321167
20
22.293071468240374
30
0
10
46.330692708318523
20
21.092993206062044
30
0
10
52.647748118368
20
19.627179574082824
30
0
10
58.550341522964125
20
18.257537974497762
30
0
10
63.830998707125502
20
16.656331408177525
30
0
10
68.305748449353672
20
14.879343827309125
30
0
10
72.486909860994231
20
13.218944401621497
30
0
10
75.964375827361252
20
11.405417365276293
30
0
10
78.632231324212967
20
9.4939982725177092
30
0
10
79.893864189817506
20
8.5900853168819893
30
0
10
80.975108956341515
20
7.6643957590119269
30
0
10
81.868548223911944
20
6.7232798813057526
30
0
10
82.732320221528653
20
5.8134144084285113
30
0
10
83.420560145943696
20
4.889136436253672
30
0
10
83.928854385887277
20
3.9563732635758853
30
0
10
84.42027036339077
20
3.0545831383688817
30
0
10
84.743501920998682
20
2.1448670883907996
30
0
10
84.896611340097479
20
1.2326787077650498
30
0
10
85.04463665484387
20
0.35078017438349163
30
0
10
85.033660003744046
20
-0.53342517379779564
30
0
10
84.863742899668893
20
-1.4149822727104044
30
0
10
84.699468010772023
20
-2.2672666573128639
30
0
10
84.386642557796648
20
-3.1170726040242047
30
0
10
83.926905295908199
20
-3.9599483526967405
30
0
10
83.482433928357821
20
-4.7748358280965872
30
0
10
82.900654701121596
20
-5.5832433259872154
30
0
10
82.184416551865809
20
-6.3812121237765984
30
0
10
80.816218321831869
20
-7.9055368164673867
30
0
10
78.956345675690116
20
-9.3916506771466839
30
0
10
76.63790442859046
20
-10.813100813534186
30
0
10
74.47157611171302
20
-12.141289606473308
30
0
10
71.905107003689793
20
-13.412994632697979
30
0
10
68.978409509892927
20
-14.608438990798495
30
0
10
63.575054428541897
20
-16.815503561190745
30
0
10
56.93744197471861
20
-18.760543187454822
30
0
10
49.41351079176691
20
-20.341600357982401
30
0
10
42.864956232703776
20
-21.71769470154284
30
0
10
35.648170001127639
20
-22.818264194089849
30
0
10
28.050822223327287
20
-23.599438759006045
30
0
10
14.985499749748186
20
-24.942841469700817
30
0
10
0.79515851453481723
20
-25.328179976779367
30
0
10
-12.885592788674458
20
-24.711066505259854
30
0
10
-23.062095020026625
20
-24.252023249467122
30
0
10
-32.949015231070256
20
-23.243407973444445
30
0
10
-41.906304385732355
20
-21.750515351509687
30
0
10
-48.569233273848475
20
-20.64001894955226
30
0
10
-54.718212724740994
20
-19.26317379558753
30
0
10
-60.131057221804141
20
-17.669730430215417
30
0
10
-64.157431423154023
20
-16.484438803765144
30
0
10
-67.777201009476386
20
-15.179729313448046
30
0
10
-70.917641841066214
20
-13.781814642968332
30
0
10
-73.253676055985835
20
-12.741968113484267
30
0
10
-75.324816237509623
20
-11.650655715924081
30
0
10
-77.107976046388927
20
-10.520041961633286
30
0
10
-78.434389294589778
20
-9.679028691357793
30
0
10
-79.601577320571991
20
-8.8162945170442306
30
0
10
-80.602330498244868
20
-7.9371684779510332
30
0
10
-82.073196306254488
20
-6.6450652294357386
30
0
10
-83.184079932337909
20
-5.3175304852799643
30
0
10
-83.920190293808062
20
-3.9722399729043669
30
0
10
-84.283749906738308
20
-3.307810665074534
30
0
10
-84.556041792945592
20
-2.6390618153931222
30
0
10
-84.73617890867024
20
-1.9681720032594776
30
0
10
-84.911968597253292
20
-1.3134734383685243
30
0
10
-85
20
-0.65673693022801083
30
0
10
-85
20
-6.6363255533691093e-15
30
0
0
CIRCLE
5
101
100
AcDbEntity
8
0
100
AcDbCircle
10
-56.191251849296492
20
14.393295117561248
30
0
40
1.7999999999999972
210
0
220
-0
230
1
0
CIRCLE
5
102
100
AcDbEntity
8
0
100
AcDbCircle
10
-56.191251849296492
20
-14.393295117561236
30
0
40
1.7999999999999972
210
0
220
-0
230
1
0
CIRCLE
5
103
100
AcDbEntity
8
0
100
AcDbCircle
10
56.191251849296492
20
-14.393295117561236
30
0
40
1.7999999999999972
210
0
220
-0
230
1
0
CIRCLE
5
104
100
AcDbEntity
8
0
100
AcDbCircle
10
56.191251849296492
20
14.393295117561223
30
0
40
1.7999999999999972
210
0
220
-0
230
1
0
ENDSEC
0
SECTION
2
OBJECTS
0
DICTIONARY
5
C
100
AcDbDictionary
3
ACAD_GROUP
350
D
3
ACAD_MLINESTYLE
350
17
0
DICTIONARY
5
D
100
AcDbDictionary
0
DICTIONARY
5
1A
330
C
100
AcDbDictionary
0
DICTIONARY
5
17
100
AcDbDictionary
0
ENDSEC
0
EOF
